<?xml version="1.0" encoding="UTF-8"?>
<svg id="a" data-name="Ebene_1" xmlns="http://www.w3.org/2000/svg" viewBox="0 0 610.97 756.51">
  <defs>
    <style>
      .b, .c {
        font-size: 44.3px;
      }

      .b, .d {
        fill: #652581;
      }

      .e, .f {
        fill: #1d1d1b;
      }

      .g {
        font-family: CalifornianFB-Reg, 'Californian FB';
      }

      .f, .h {
        font-size: 60.91px;
      }

      .i {
        fill: #662483;
      }
    </style>
  </defs>
  <g>
    <path d="M326.47,738.87c-33.71-20.47-49.71-43.6-57.73-58.72-36.76-69.33-9.67-166.08,12.8-208.45,1.34-2.53,14.58-27.32,23.15-62.03,5.43-21.98,4.9-34.37,4.21-42.12-2.04-23.02-10.82-39.57-14.54-45.96-3.98-6.83-15.02-24.1-34.08-36.17-38.26-24.22-83.26-11.29-83.48-13.41-.27-2.58,65.27-36.07,132.54-3.06,46.49,22.82,75.23,66.95,78.88,108.52,7.79,88.76-35.33,94.43-69,159.53-34.5,66.69-24.59,136.56,7.23,201.86Z"/>
    <path d="M400.63,751.22c3.38-25.63,7.51-50.11,17.53-74.09l46.29-78.29c-28.76,29.25-55.53,64.55-67.35,104.59-5.14,17.42-7.53,35.27-10.75,53.09l-26.99-.05c-17.52-59.08-11.05-120.39,24.34-171.47,36.5-52.68,71.7-63.16,80.17-107.23,3.18-16.55.11-26.11,2.46-26.53,6.79-1.22,48.68,75.93,30.64,162.36-17.67,84.65-82.49,128.67-96.33,137.63Z"/>
    <path d="M450.05,256.99c1,5.4-.86,3.19-2.95,4.29-33.31,17.47-40.19,30.86-56.59,62.79-1.1,2.14,1.08,3.89-4.28,2.93-7.97-28.9-33.31-51.03-57.67-66.94,18.85-2.43,35.42-3.11,42.24-23.64,2.47-7.43,4.01-12.47,1.48-20.05-6.62-19.82-14.75,2.7-25.28,6.56-13.74,5.03-13.39-5.96-18.38-13.86-1.95-3.09-8.44-3.28-6.32-11.71l-12.26-.1c-1.52-2.41-3.56-6.32-4.21-11.38-1.25-9.63,3.91-12.63,3.48-22.98-.31-7.51-3.13-8.26-4.14-17.83-.7-6.67.05-12.22.74-15.74-1.13-.35-2.73-.74-3.7.14-.81.74-.46,2.33-1.41,3.92-5.05,8.41-6.59,15.77-5.04,25.67.3,1.93,12.28,28.57,1.95,24.86-8.4-3.01-19.84-14.38-21.76-23.59-4.49-21.51,6.91-37.03,23.95-48.35,32.1-21.33,76.91-41.11,106.93-6.35,4.06,4.7,5.12,11.31,11.3,15.47,8.1,5.46,20.37,5.31,28.88,12.31,12.12,9.96,15.79,30.33,9.37,44.44-8.07,17.75-38.75,22.17-41.18,37.06-3.84,23.5,10.94,42.65,34.87,42.1Z"/>
    <path d="M342.94,747.11c-8.05-8.63-13.65-23.85-17.4-35.09-18.44-55.39-20.05-115.2,6.74-168.14,21.62-42.73,66.42-73.89,70.48-125.17,2.41-30.46-7.02-60.22,3.07-89.61,10.93-31.86,55.92-74.58,92.11-65.44,9.33,2.36,13.45,15.71,13.55,24.75.18,16.17-15.09,19.73-27.85,45.78-6.52,13.3-8.68,24.91-11.23,38.61-4.11,22.06-3.52,38.82-3.51,42.82.11,50.62-88.42,107.21-121.52,174.23-14.93,30.23-26.76,79.14-4.43,157.25Z"/>
  </g>
  <text class="g" transform="translate(87.81 337.89)"><tspan class="h"><tspan class="i" x="0" y="0" xml:space="preserve">  </tspan><tspan class="e" x="26.05" y="0">Stella </tspan></tspan><tspan class="f"><tspan x="0" y="44.3">Marucci</tspan></tspan><tspan class="c"><tspan class="e" x="0" y="83.06" xml:space="preserve">  </tspan><tspan class="d" x="18.95" y="83.06">Let‘s talk </tspan></tspan><tspan class="b"><tspan x="0" y="121.82" xml:space="preserve">   about it</tspan></tspan></text>
</svg>